<svg width="16" height="16" viewBox="0 0 16 16" fill="none" xmlns="http://www.w3.org/2000/svg">
<path d="M14.3327 8.00033C14.3327 11.4981 11.4971 14.3337 7.99935 14.3337C6.91395 14.3337 5.89228 14.0606 4.99935 13.5795C3.75386 12.9083 2.91576 13.5323 2.17663 13.6442C2.06451 13.6612 1.95284 13.6205 1.87266 13.5403C1.75096 13.4186 1.72779 13.2304 1.79502 13.0719C2.08512 12.3882 2.35148 11.0925 1.98829 10.0003C1.77922 9.37166 1.66602 8.69919 1.66602 8.00033C1.66602 4.50252 4.50154 1.66699 7.99935 1.66699C11.4971 1.66699 14.3327 4.50252 14.3327 8.00033Z" stroke="#141B34" stroke-width="1.2" stroke-linecap="round" stroke-linejoin="round"/>
<path d="M8.08315 7.99967H7.99982M5.41602 7.99967H5.33268M10.7493 7.99967H10.666M8.16648 7.99967C8.16648 8.09174 8.09188 8.16634 7.99982 8.16634C7.90782 8.16634 7.83315 8.09174 7.83315 7.99967C7.83315 7.90761 7.90782 7.83301 7.99982 7.83301C8.09188 7.83301 8.16648 7.90761 8.16648 7.99967ZM5.49935 7.99967C5.49935 8.09174 5.42473 8.16634 5.33268 8.16634C5.24064 8.16634 5.16602 8.09174 5.16602 7.99967C5.16602 7.90761 5.24064 7.83301 5.33268 7.83301C5.42473 7.83301 5.49935 7.90761 5.49935 7.99967ZM10.8327 7.99967C10.8327 8.09174 10.7581 8.16634 10.666 8.16634C10.5739 8.16634 10.4993 8.09174 10.4993 7.99967C10.4993 7.90761 10.5739 7.83301 10.666 7.83301C10.7581 7.83301 10.8327 7.90761 10.8327 7.99967Z" stroke="#141B34" stroke-width="1.2" stroke-linecap="round" stroke-linejoin="round"/>
</svg>
