<svg width="16" height="16" viewBox="0 0 16 16" fill="none" xmlns="http://www.w3.org/2000/svg">
<path d="M10 13.5996C10.1592 13.5996 10.3122 13.5364 10.4248 13.4238C10.5372 13.3113 10.6005 13.159 10.6006 13C10.6006 12.8408 10.5374 12.6878 10.4248 12.5752L5.84863 8L10.4248 3.42383C10.4804 3.36816 10.5245 3.3022 10.5547 3.22949C10.5848 3.15675 10.6005 3.07874 10.6006 3C10.6006 2.92117 10.5849 2.84236 10.5547 2.76953C10.5245 2.6969 10.4804 2.63081 10.4248 2.5752C10.3692 2.51957 10.3031 2.47547 10.2305 2.44531C10.1576 2.41515 10.0788 2.39941 10 2.39941C9.9213 2.39947 9.84321 2.4152 9.77051 2.44531C9.69783 2.47545 9.63183 2.51958 9.57617 2.5752L4.57617 7.5752C4.52044 7.63086 4.4755 7.69678 4.44531 7.76953C4.41512 7.84237 4.40039 7.92115 4.40039 8C4.40043 8.0787 4.41519 8.15678 4.44531 8.22949C4.47549 8.30229 4.52043 8.36812 4.57617 8.42383L9.57617 13.4238C9.68865 13.5363 9.84094 13.5995 10 13.5996Z" fill="#6A707D" stroke="#6A707D" stroke-width="0.2"/>
</svg>
