<svg width="16" height="16" viewBox="0 0 16 16" fill="none" xmlns="http://www.w3.org/2000/svg">
<path d="M6 13.5996C5.8408 13.5996 5.68777 13.5364 5.5752 13.4238C5.46278 13.3113 5.39949 13.159 5.39941 13C5.39941 12.8408 5.46262 12.6878 5.5752 12.5752L10.1514 8L5.5752 3.42383C5.51956 3.36816 5.47545 3.3022 5.44531 3.22949C5.41518 3.15675 5.39945 3.07874 5.39941 3C5.39941 2.92117 5.41515 2.84236 5.44531 2.76953C5.47547 2.6969 5.51958 2.63081 5.5752 2.5752C5.63083 2.51957 5.69687 2.47547 5.76953 2.44531C5.84236 2.41515 5.92117 2.39941 6 2.39941C6.0787 2.39947 6.15679 2.4152 6.22949 2.44531C6.30217 2.47545 6.36817 2.51958 6.42383 2.5752L11.4238 7.5752C11.4796 7.63086 11.5245 7.69678 11.5547 7.76953C11.5849 7.84237 11.5996 7.92115 11.5996 8C11.5996 8.0787 11.5848 8.15678 11.5547 8.22949C11.5245 8.30229 11.4796 8.36812 11.4238 8.42383L6.42383 13.4238C6.31135 13.5363 6.15906 13.5995 6 13.5996Z" fill="#6A707D" stroke="#6A707D" stroke-width="0.2"/>
</svg>
