<svg width="20" height="20" viewBox="0 0 20 20" fill="none" xmlns="http://www.w3.org/2000/svg">
<path d="M2.5 3.02539C2.69228 3.02539 2.87673 3.10134 3.0127 3.2373C3.14866 3.37327 3.22461 3.55772 3.22461 3.75V10.9033L7.02246 7.58105C7.14756 7.47154 7.30651 7.40861 7.47266 7.40234C7.63873 7.39608 7.8016 7.44718 7.93457 7.54688L12.4639 10.9434L17.0176 6.95996C17.0878 6.89045 17.1717 6.8358 17.2637 6.7998C17.3557 6.76381 17.4549 6.74753 17.5537 6.75098C17.6523 6.75448 17.7497 6.77805 17.8389 6.82031C17.928 6.86259 18.0072 6.92299 18.0723 6.99707C18.1375 7.0713 18.1873 7.15796 18.2178 7.25195C18.2482 7.34599 18.2593 7.44554 18.25 7.54395C18.2407 7.64232 18.2106 7.7376 18.1631 7.82422C18.1164 7.90919 18.0526 7.98288 17.9766 8.04297L17.9775 8.04395L12.9775 12.4189C12.8524 12.5285 12.6935 12.5914 12.5273 12.5977C12.3613 12.6039 12.1984 12.5528 12.0654 12.4531L7.53516 9.05664L3.22461 12.8281V15.5254H17.5C17.6923 15.5254 17.8767 15.6013 18.0127 15.7373C18.1487 15.8733 18.2246 16.0577 18.2246 16.25C18.2246 16.4423 18.1487 16.6267 18.0127 16.7627C17.8767 16.8987 17.6923 16.9746 17.5 16.9746H2.5C2.30772 16.9746 2.12327 16.8987 1.9873 16.7627C1.85134 16.6267 1.77539 16.4423 1.77539 16.25V3.75C1.77539 3.55772 1.85134 3.37327 1.9873 3.2373C2.12327 3.10134 2.30772 3.02539 2.5 3.02539Z" fill="#6A707D" stroke="#6A707D" stroke-width="0.2"/>
</svg>
