<svg width="20" height="20" viewBox="0 0 20 20" fill="none" xmlns="http://www.w3.org/2000/svg">
<path d="M10 1.77539C12.1807 1.77769 14.2715 2.64456 15.8135 4.18652C17.3554 5.72849 18.2223 7.81933 18.2246 10L18.2197 10.3047C18.1634 11.8246 17.6861 13.3014 16.8389 14.5693C15.9351 15.9219 14.6504 16.9761 13.1475 17.5986C11.6446 18.2211 9.99094 18.3847 8.39551 18.0674C6.80001 17.75 5.33388 16.9667 4.18359 15.8164C3.03331 14.6661 2.24998 13.2 1.93262 11.6045C1.61531 10.0091 1.77886 8.3554 2.40137 6.85254C3.0239 5.34962 4.07807 4.06491 5.43066 3.16113C6.78322 2.25743 8.37332 1.77539 10 1.77539ZM12.5928 3.74023C11.3549 3.22753 9.99278 3.09416 8.67871 3.35547C7.36449 3.61688 6.15649 4.26148 5.20898 5.20898C4.26148 6.15648 3.61688 7.36449 3.35547 8.67871C3.09416 9.99278 3.22753 11.3549 3.74023 12.5928C4.25302 13.8307 5.12219 14.8884 6.23633 15.6328C7.35046 16.3772 8.66005 16.7754 10 16.7754L10.3359 16.7666C12.0098 16.6817 13.5974 15.9788 14.7881 14.7881C16.0582 13.518 16.7733 11.7962 16.7754 10L16.7705 9.74902C16.7241 8.49699 16.3307 7.2808 15.6328 6.23633C14.8884 5.12219 13.8307 4.25302 12.5928 3.74023ZM13.8662 5.5332C14.0167 5.55747 14.1559 5.62856 14.2637 5.73633C14.3714 5.84409 14.4425 5.98333 14.4668 6.13379C14.491 6.28414 14.4668 6.43812 14.3984 6.57422L11.8984 11.5742C11.8281 11.7143 11.7143 11.8281 11.5742 11.8984L6.57422 14.3984V14.3994C6.47352 14.4492 6.36235 14.4744 6.25 14.4746C6.12638 14.4747 6.00448 14.4439 5.89648 14.3838C5.78849 14.3236 5.69782 14.236 5.63281 14.1309C5.56792 14.0258 5.53093 13.9056 5.52539 13.7822C5.5199 13.6588 5.54629 13.5363 5.60156 13.4258L8.10156 8.42578L8.16211 8.3252C8.23031 8.23097 8.32083 8.15428 8.42578 8.10156L13.4258 5.60156C13.5619 5.53323 13.7159 5.50899 13.8662 5.5332ZM9.29297 9.29297L7.87207 12.127L10.707 10.7051L12.1309 7.87402L9.29297 9.29297Z" fill="#6A707D" stroke="#6A707D" stroke-width="0.2"/>
</svg>
