<svg width="14" height="14" viewBox="0 0 14 14" fill="none" xmlns="http://www.w3.org/2000/svg">
<path fill-rule="evenodd" clip-rule="evenodd" d="M2.91728 10.2583C2.68949 10.4862 2.68952 10.8555 2.91735 11.0833C3.14517 11.3111 3.51452 11.3111 3.7423 11.0832L7.00036 7.82463L10.2587 11.083C10.4865 11.3107 10.8558 11.3107 11.0836 11.083C11.3114 10.8552 11.3114 10.4858 11.0836 10.258L7.82525 6.99962L11.0834 3.74089C11.3111 3.51307 11.3111 3.14373 11.0833 2.91594C10.8555 2.68815 10.4861 2.68818 10.2583 2.91601L7.00024 6.17467L3.74191 2.91629C3.5141 2.68849 3.14475 2.68849 2.91695 2.91629C2.68914 3.1441 2.68914 3.51344 2.91695 3.74125L6.17541 6.99968L2.91728 10.2583Z" fill="white"/>
</svg>
