<svg width="16" height="16" viewBox="0 0 16 16" fill="none" xmlns="http://www.w3.org/2000/svg">
<g clip-path="url(#clip0_197_13166)">
<path d="M7.99935 0.666992C6.54896 0.666992 5.13113 1.09708 3.92517 1.90288C2.71921 2.70868 1.77928 3.85399 1.22424 5.19398C0.669193 6.53397 0.523969 8.00846 0.806927 9.43099C1.08989 10.8535 1.78832 12.1602 2.8139 13.1858C3.83949 14.2114 5.14616 14.9098 6.56869 15.1928C7.99122 15.4757 9.46571 15.3305 10.8057 14.7754C12.1457 14.2204 13.291 13.2805 14.0968 12.0745C14.9026 10.8685 15.3327 9.45072 15.3327 8.00033C15.3304 6.05611 14.557 4.19218 13.1823 2.81741C11.8075 1.44264 9.94357 0.669286 7.99935 0.666992ZM7.99935 14.0003C6.81266 14.0003 5.65263 13.6484 4.66593 12.9891C3.67924 12.3299 2.9102 11.3928 2.45608 10.2964C2.00195 9.20007 1.88313 7.99367 2.11464 6.82978C2.34615 5.6659 2.9176 4.5968 3.75671 3.75768C4.59583 2.91857 5.66492 2.34713 6.82881 2.11561C7.9927 1.8841 9.1991 2.00292 10.2955 2.45705C11.3918 2.91117 12.3289 3.68021 12.9882 4.6669C13.6475 5.6536 13.9994 6.81364 13.9994 8.00033C13.9974 9.59103 13.3646 11.116 12.2399 12.2408C11.1151 13.3656 9.59006 13.9984 7.99935 14.0003Z" fill="#6B6B6B"/>
<path d="M8.66732 7.72367V3.99967C8.66732 3.82286 8.59708 3.65329 8.47206 3.52827C8.34703 3.40325 8.17746 3.33301 8.00065 3.33301C7.82384 3.33301 7.65427 3.40325 7.52925 3.52827C7.40422 3.65329 7.33398 3.82286 7.33398 3.99967V7.99967C7.33402 8.17647 7.40428 8.34601 7.52932 8.47101L9.52932 10.471C9.65505 10.5924 9.82345 10.6596 9.99825 10.6581C10.173 10.6566 10.3403 10.5865 10.4639 10.4629C10.5875 10.3393 10.6576 10.1721 10.6591 9.99728C10.6606 9.82248 10.5934 9.65408 10.472 9.52834L8.66732 7.72367Z" fill="#6B6B6B"/>
</g>
<defs>
<clipPath id="clip0_197_13166">
<rect width="16" height="16" fill="white"/>
</clipPath>
</defs>
</svg>
