<svg width="20" height="20" viewBox="0 0 20 20" fill="none" xmlns="http://www.w3.org/2000/svg">
<g clip-path="url(#clip0_197_13129)">
<path d="M10 1.77539C10.1188 1.77542 10.236 1.80453 10.3408 1.86035L19.7158 6.86035C19.8317 6.92217 19.9285 7.01435 19.9961 7.12695C20.0637 7.23964 20.0996 7.36858 20.0996 7.5C20.0996 7.6314 20.0637 7.76038 19.9961 7.87305C19.9285 7.98564 19.8317 8.07785 19.7158 8.13965L17.5996 9.26855V12.9912L17.5947 13.1152C17.5687 13.4019 17.4504 13.6736 17.2568 13.8896V13.8906C16.6316 14.5817 15.9035 15.1716 15.0996 15.6426V18.75C15.0996 18.9422 15.0236 19.1268 14.8877 19.2627C14.7518 19.3986 14.5672 19.4746 14.375 19.4746C14.1828 19.4746 13.9983 19.3986 13.8623 19.2627C13.7264 19.1268 13.6494 18.9422 13.6494 18.75V16.333C12.482 16.766 11.2459 16.9838 10 16.9736V16.9746C6.09675 16.9746 3.77806 15.0443 2.74219 13.8906V13.8896C2.5211 13.6427 2.39874 13.3227 2.39941 12.9912V9.26758L0.28418 8.13965C0.168184 8.07783 0.0705728 7.98575 0.00292969 7.87305C-0.0646316 7.76042 -0.0995908 7.63134 -0.0996094 7.5C-0.0996094 7.36868 -0.0645906 7.23958 0.00292969 7.12695C0.0705728 7.01425 0.168184 6.92217 0.28418 6.86035L9.65918 1.86035C9.76407 1.8045 9.88116 1.77539 10 1.77539ZM3.84961 12.9512C4.73031 13.9221 6.68735 15.5244 10 15.5244C11.4802 15.5244 12.6869 15.2026 13.6494 14.7627V11.375L10.3408 13.1396C10.236 13.1955 10.1188 13.2246 10 13.2246C9.88119 13.2246 9.76406 13.1955 9.65918 13.1396L3.84961 10.041V12.9512ZM15.0996 10.6016V13.9004C15.4782 13.6161 15.8305 13.2986 16.1494 12.9482V10.041L15.0996 10.6016ZM2.16406 7.5L10 11.6777L13.1475 9.99902L9.66016 8.13965L9.65918 8.13867C9.49306 8.0465 9.36939 7.89308 9.31543 7.71094C9.26152 7.52861 9.28172 7.33188 9.37109 7.16406C9.46041 6.99644 9.61183 6.87055 9.79297 6.81348C9.92895 6.77073 10.0738 6.76921 10.209 6.80762L10.3408 6.85938L10.3418 6.86035L14.6885 9.17773L17.835 7.5L10 3.32129L2.16406 7.5Z" fill="#6A707D" stroke="#6A707D" stroke-width="0.2"/>
</g>
<defs>
<clipPath id="clip0_197_13129">
<rect width="20" height="20" fill="white"/>
</clipPath>
</defs>
</svg>
