<svg width="20" height="20" viewBox="0 0 20 20" fill="none" xmlns="http://www.w3.org/2000/svg">
<path d="M10 1.72461C10.3711 1.72461 10.7267 1.87252 10.9893 2.13477L17.2393 8.38477C17.3699 8.51449 17.4735 8.66877 17.5439 8.83887C17.6144 9.00883 17.6509 9.19103 17.6504 9.375V16.875C17.6504 17.0805 17.5681 17.2775 17.4229 17.4229C17.2775 17.5682 17.0805 17.6504 16.875 17.6504H11.875C11.6695 17.6504 11.4725 17.5682 11.3271 17.4229C11.1819 17.2775 11.0996 17.0805 11.0996 16.875V12.6504H8.90039V16.875C8.90039 17.0805 8.81813 17.2775 8.67285 17.4229C8.52751 17.5682 8.33054 17.6504 8.125 17.6504H3.125C2.91946 17.6504 2.72249 17.5682 2.57715 17.4229C2.43187 17.2775 2.34961 17.0805 2.34961 16.875V9.375C2.34905 9.19103 2.38564 9.00883 2.45605 8.83887C2.52653 8.66877 2.6301 8.51449 2.76074 8.38477L9.01074 2.13477C9.27325 1.87251 9.62893 1.72461 10 1.72461ZM3.90039 9.4375V16.1006H7.34961V11.875C7.34966 11.6695 7.43186 11.4724 7.57715 11.3271C7.72248 11.1819 7.91951 11.1006 8.125 11.1006H11.875C12.0805 11.1006 12.2775 11.1819 12.4229 11.3271C12.5681 11.4724 12.6503 11.6695 12.6504 11.875V16.1006H16.0996V9.4375L10 3.33789L3.90039 9.4375Z" fill="#4A8C5C" stroke="#4A8C5C" stroke-width="0.3"/>
</svg>
