<svg width="16" height="16" viewBox="0 0 16 16" fill="none" xmlns="http://www.w3.org/2000/svg">
<path d="M7.9987 8.33366V8.00033M7.9987 4.33366V4.00033M7.9987 12.3337V12.0003M8.66536 8.33366C8.66536 7.96546 8.3669 7.66699 7.9987 7.66699C7.6305 7.66699 7.33203 7.96546 7.33203 8.33366C7.33203 8.70186 7.6305 9.00033 7.9987 9.00033C8.3669 9.00033 8.66536 8.70186 8.66536 8.33366ZM8.66536 4.33366C8.66536 3.96547 8.3669 3.66699 7.9987 3.66699C7.6305 3.66699 7.33203 3.96547 7.33203 4.33366C7.33203 4.70185 7.6305 5.00033 7.9987 5.00033C8.3669 5.00033 8.66536 4.70185 8.66536 4.33366ZM8.66536 12.3337C8.66536 11.9655 8.3669 11.667 7.9987 11.667C7.6305 11.667 7.33203 11.9655 7.33203 12.3337C7.33203 12.7019 7.6305 13.0003 7.9987 13.0003C8.3669 13.0003 8.66536 12.7019 8.66536 12.3337Z" stroke="#6B6B6B" stroke-width="1.5" stroke-linecap="round" stroke-linejoin="round"/>
</svg>
