<svg width="20" height="20" viewBox="0 0 20 20" fill="none" xmlns="http://www.w3.org/2000/svg">
<g clip-path="url(#clip0_197_13133)">
<path d="M6.56348 3.64844C7.59112 3.64852 8.59184 3.97928 9.41699 4.5918C10.242 5.20437 10.848 6.0662 11.1455 7.0498C11.443 8.03347 11.4157 9.08655 11.0684 10.0537C10.7423 10.9614 10.1498 11.7474 9.37109 12.3115C10.7359 12.8534 11.9137 13.7789 12.7617 14.9756L12.9336 15.2295L12.9346 15.2305C13.0361 15.3913 13.0707 15.5856 13.0303 15.7715C12.9897 15.9575 12.8772 16.1205 12.7178 16.2246C12.5582 16.3287 12.3634 16.366 12.1768 16.3281C11.9903 16.2902 11.826 16.1803 11.7197 16.0225L11.7188 16.0205C11.1604 15.1618 10.3964 14.4563 9.49609 13.9678C8.59579 13.4793 7.58778 13.2237 6.56348 13.2236C5.53904 13.2236 4.5303 13.4792 3.62988 13.9678C2.73012 14.456 1.96551 15.1605 1.40723 16.0186L1.4082 16.0195C1.35687 16.1007 1.28964 16.1715 1.21094 16.2266C1.13223 16.2817 1.04309 16.3204 0.949219 16.3408C0.855424 16.3613 0.758479 16.363 0.664062 16.3457C0.569562 16.3283 0.478914 16.2917 0.398438 16.2393C0.31826 16.1869 0.249156 16.1192 0.195312 16.04C0.141333 15.9606 0.103101 15.8705 0.0839844 15.7764C0.0649464 15.6823 0.0653006 15.5853 0.0839844 15.4912C0.1027 15.397 0.13974 15.3072 0.193359 15.2275C1.0504 13.909 2.29524 12.8909 3.75391 12.3115C2.97559 11.7474 2.38359 10.9611 2.05762 10.0537C1.71027 9.08659 1.68303 8.03343 1.98047 7.0498C2.27799 6.06603 2.8847 5.20439 3.70996 4.5918C4.53521 3.97923 5.53573 3.64844 6.56348 3.64844ZM11.6602 3.99121C12.7592 3.5529 13.9818 3.53751 15.0918 3.94727C16.2018 4.3571 17.1213 5.16354 17.6719 6.21094C18.2223 7.25828 18.3651 8.4725 18.0732 9.61914C17.7969 10.7048 17.1485 11.6558 16.2451 12.3115C17.7048 12.8909 18.9502 13.9091 19.8076 15.2285C19.9126 15.3896 19.9507 15.5863 19.9111 15.7744C19.8715 15.9625 19.7586 16.1274 19.5977 16.2324C19.4366 16.3374 19.2399 16.3736 19.0518 16.334C18.8638 16.2943 18.6987 16.1814 18.5938 16.0205C18.0361 15.1614 17.2725 14.4551 16.3721 13.9668C15.4716 13.4785 14.4629 13.2233 13.4385 13.2246C13.2463 13.2246 13.0617 13.1485 12.9258 13.0127C12.7898 12.8767 12.7129 12.6923 12.7129 12.5C12.7129 12.3077 12.7898 12.1233 12.9258 11.9873C13.0617 11.8514 13.2463 11.7754 13.4385 11.7754C13.9298 11.7749 14.4151 11.6657 14.8594 11.4561C15.3038 11.2463 15.696 10.9405 16.0088 10.5615C16.3216 10.1824 16.5474 9.73891 16.6689 9.2627C16.7904 8.78649 16.8048 8.28924 16.7119 7.80664C16.619 7.324 16.4205 6.86779 16.1309 6.4707C15.8412 6.07366 15.4673 5.74563 15.0361 5.50977C14.605 5.27395 14.1272 5.13618 13.6367 5.10645C13.1469 5.07676 12.6561 5.15354 12.2002 5.33496L12.2012 5.33594C12.1123 5.37435 12.0167 5.39465 11.9199 5.39551C11.823 5.39633 11.7263 5.37776 11.6367 5.34082C11.5474 5.30391 11.4665 5.24937 11.3984 5.18066C11.3304 5.11186 11.2762 5.03028 11.2402 4.94043C11.2043 4.85055 11.1867 4.75401 11.1885 4.65723C11.1903 4.56036 11.2116 4.4645 11.251 4.37598C11.2904 4.28746 11.3473 4.20782 11.418 4.1416C11.488 4.07602 11.5703 4.02472 11.6602 3.99121ZM7.21387 5.16406C6.56669 5.0354 5.89578 5.10108 5.28613 5.35352C4.67635 5.6061 4.15481 6.03424 3.78809 6.58301C3.42136 7.13186 3.22559 7.7774 3.22559 8.4375C3.22663 9.3222 3.5786 10.1703 4.2041 10.7959C4.82981 11.4216 5.67859 11.7744 6.56348 11.7754C7.22327 11.7753 7.86834 11.5794 8.41699 11.2129C8.96579 10.8462 9.39387 10.3246 9.64648 9.71484C9.89909 9.105 9.96569 8.43354 9.83691 7.78613C9.70812 7.13876 9.38958 6.54388 8.92285 6.07715C8.45613 5.61054 7.86115 5.29282 7.21387 5.16406Z" fill="#6A707D" stroke="#6A707D" stroke-width="0.2"/>
</g>
<defs>
<clipPath id="clip0_197_13133">
<rect width="20" height="20" fill="white"/>
</clipPath>
</defs>
</svg>
